<?xml version="1.0" standalone="no"?>
<!DOCTYPE svg PUBLIC "-//W3C//DTD SVG 20010904//EN"
 "http://www.w3.org/TR/2001/REC-SVG-20010904/DTD/svg10.dtd">
<svg version="1.0" xmlns="http://www.w3.org/2000/svg"
 width="1024.000000pt" height="1024.000000pt" viewBox="0 0 1024.000000 1024.000000"
 preserveAspectRatio="xMidYMid meet">

<g transform="translate(0.000000,1024.000000) scale(0.100000,-0.100000)"
fill="#000000" stroke="none">
<path d="M3379 9218 c-134 -97 -353 -347 -420 -480 -41 -81 -69 -196 -69 -282
0 -131 -5 -143 -69 -175 -31 -16 -119 -54 -196 -86 -77 -31 -203 -88 -280
-127 l-140 -69 51 53 c79 81 121 142 179 257 95 191 165 397 165 488 0 43 -19
83 -40 83 -27 0 -185 -145 -259 -237 -133 -164 -201 -306 -252 -523 -17 -69
-46 -159 -65 -200 -33 -71 -39 -78 -112 -125 -95 -61 -257 -179 -294 -213 -16
-14 -28 -23 -28 -20 0 3 31 59 69 126 108 192 121 252 121 589 0 230 -6 273
-38 273 -29 0 -191 -209 -246 -319 -77 -149 -99 -348 -56 -501 37 -130 37
-179 1 -256 -17 -36 -31 -81 -31 -98 0 -23 -18 -60 -62 -127 -74 -111 -188
-333 -188 -365 0 -26 27 -39 46 -23 7 6 38 58 69 115 74 140 108 190 205 315
162 204 185 221 341 249 80 15 112 4 206 -68 222 -171 485 -219 735 -136 88
29 124 53 115 77 -3 8 -44 34 -91 56 -47 22 -134 69 -193 104 -157 94 -268
147 -332 158 -75 14 -158 -4 -330 -70 -73 -29 -138 -50 -144 -48 -21 7 466
306 615 378 l46 22 74 -42 c54 -32 111 -81 218 -190 156 -159 194 -184 345
-236 60 -21 99 -28 155 -28 80 0 155 23 148 45 -3 7 -47 47 -100 90 -52 42
-125 110 -162 151 -138 152 -237 217 -455 293 -16 5 38 32 272 135 118 53 161
67 175 60 33 -18 70 -66 133 -171 164 -276 287 -363 492 -345 139 11 139 14
16 141 -58 60 -133 146 -167 190 -64 84 -133 145 -238 209 l-59 37 125 -6
c161 -8 236 -20 335 -56 44 -15 120 -43 168 -60 132 -47 240 -58 367 -37 119
20 368 100 399 128 44 42 26 57 -129 107 -286 93 -426 94 -730 7 -134 -39
-156 -40 -417 -19 l-82 7 162 104 c253 163 254 163 448 173 232 12 300 37 539
195 181 120 295 242 252 269 -4 2 -45 -4 -91 -15 -46 -11 -160 -33 -255 -49
-201 -36 -331 -70 -400 -108 -27 -15 -99 -74 -160 -133 -108 -103 -173 -151
-344 -258 -93 -58 -354 -202 -358 -198 -2 1 13 23 33 47 54 68 227 329 256
387 30 59 91 256 101 326 14 93 -17 111 -95 55z m-75 -213 c-24 -47 -57 -130
-74 -184 -23 -76 -45 -121 -101 -205 -39 -59 -73 -105 -76 -103 -2 3 17 54 42
113 81 189 79 184 67 196 -19 19 -48 -17 -100 -126 -27 -56 -53 -112 -60 -126
-18 -42 -14 2 7 62 30 88 69 164 119 230 49 66 200 228 212 228 3 0 -13 -38
-36 -85z m1226 50 c0 -7 -140 -99 -187 -123 -36 -19 -201 -57 -333 -77 -83
-13 -35 4 84 30 135 29 156 38 156 65 0 28 -42 26 -154 -4 -49 -14 -85 -21
-80 -17 22 21 242 84 364 105 74 13 138 24 143 25 4 0 7 -1 7 -4z m-2079 -465
c-17 -69 -44 -150 -61 -183 -45 -86 -169 -264 -170 -244 0 4 29 70 65 146 68
144 78 181 47 181 -19 0 -105 -145 -152 -258 -31 -72 -38 -57 -10 20 34 96 98
214 163 301 62 84 138 170 144 164 2 -2 -10 -59 -26 -127z m1827 -209 c64 -16
137 -34 162 -39 l45 -9 -40 -11 c-22 -7 -87 -22 -144 -34 -102 -22 -105 -22
-208 -4 -57 9 -120 23 -141 31 -36 13 -33 14 66 14 112 1 142 10 142 43 0 20
-3 21 -100 14 -56 -3 -113 -3 -128 1 -27 7 -27 7 8 14 92 17 219 9 338 -20z
m-2618 -133 c0 -177 -16 -255 -75 -373 l-45 -90 6 55 c4 30 22 104 41 165 36
115 39 158 12 163 -12 2 -25 -17 -47 -71 -29 -68 -65 -189 -75 -247 -2 -14 -5
6 -6 43 -1 81 22 199 55 281 29 72 113 216 125 216 5 0 9 -64 9 -142z m1724
-84 c64 -54 297 -294 304 -313 5 -14 -117 9 -165 31 -51 23 -156 123 -186 176
-27 48 -15 39 38 -29 30 -38 51 -57 57 -51 18 18 -59 147 -142 236 -44 48 -44
49 -11 30 18 -10 65 -46 105 -80z m-539 -257 c33 -22 114 -93 180 -158 66 -64
138 -129 159 -143 l39 -26 -30 0 c-48 0 -143 29 -207 63 -61 32 -196 158 -266
247 l-35 45 55 -39 c30 -22 97 -72 147 -113 51 -40 97 -73 103 -73 5 0 10 8
10 19 0 18 -90 104 -195 186 -91 71 -73 67 40 -8z m-591 -282 c77 -20 453
-215 435 -225 -28 -18 -145 -32 -213 -27 -137 10 -295 68 -417 151 -72 50 -30
37 221 -67 105 -44 145 -50 145 -23 0 15 -19 27 -80 51 -44 17 -119 50 -166
73 -47 22 -107 47 -135 54 l-49 12 35 7 c65 12 165 9 224 -6z"/>
<path d="M3525 7411 c-88 -36 -455 -526 -907 -1211 -107 -162 -229 -347 -270
-410 -42 -63 -102 -151 -133 -195 -31 -44 -75 -108 -98 -142 -23 -35 -48 -63
-56 -63 -8 0 -90 31 -182 70 -266 111 -431 149 -592 137 -133 -11 -277 -67
-355 -140 -32 -29 -26 -68 13 -86 27 -13 33 -12 75 13 199 118 363 143 579 87
76 -20 311 -110 384 -148 l28 -14 -33 -46 c-65 -91 -237 -290 -314 -363 -142
-135 -267 -201 -352 -185 -48 9 -104 68 -127 132 -10 28 -20 98 -24 169 -7
128 -18 157 -54 152 -51 -8 -82 -111 -67 -221 27 -191 152 -322 304 -320 194
4 403 167 690 541 44 56 83 102 89 102 5 0 80 -22 167 -50 132 -41 238 -66
395 -96 20 -3 19 -8 -23 -136 -99 -297 -109 -493 -26 -514 43 -11 62 20 86
132 21 106 66 260 120 414 l33 95 90 7 c89 7 276 41 322 59 28 10 28 7 4 -56
-55 -145 -25 -248 78 -262 56 -8 112 27 233 145 54 52 98 92 98 89 0 -3 -9
-51 -20 -106 -67 -343 -34 -596 94 -708 88 -78 222 -85 342 -18 96 52 160 110
352 319 310 337 427 451 576 555 83 58 89 56 81 -26 -5 -58 -3 -73 14 -100 37
-59 111 -54 190 13 40 35 47 37 104 35 117 -3 322 51 467 124 l70 35 0 -35 c0
-69 55 -135 112 -135 26 0 61 31 237 203 113 112 216 209 228 215 19 10 15 -2
-27 -91 -26 -56 -57 -133 -69 -171 -26 -85 -30 -200 -7 -244 37 -71 115 -104
197 -82 59 15 234 109 399 212 74 46 140 87 147 91 9 6 10 -14 6 -81 -6 -99 7
-140 54 -161 48 -22 81 -13 133 35 l49 46 6 -39 c17 -101 51 -161 116 -205 82
-55 178 -52 302 10 46 23 173 101 283 173 277 184 438 279 450 266 2 -2 -10
-35 -27 -73 -17 -38 -42 -112 -55 -164 -77 -302 -6 -507 168 -487 91 11 129
41 409 325 146 148 285 282 308 298 52 34 54 67 4 72 -27 3 -45 -9 -135 -86
-57 -49 -179 -160 -271 -246 -194 -180 -290 -256 -324 -256 -47 0 -67 104 -42
222 27 133 66 217 190 424 43 71 79 140 79 152 0 34 -35 62 -77 62 -33 0 -45
-8 -98 -64 -52 -55 -80 -74 -210 -139 -82 -42 -211 -113 -285 -158 -74 -45
-175 -107 -225 -137 -251 -152 -333 -174 -369 -98 -21 44 -21 137 0 207 9 29
36 93 60 141 42 84 55 146 36 174 -12 18 -49 34 -80 34 -16 0 -46 7 -65 15
-77 32 -163 5 -264 -85 -58 -52 -284 -188 -508 -305 -171 -90 -237 -104 -251
-51 -9 36 22 137 77 248 64 132 93 227 84 274 -15 84 -93 109 -176 55 -50 -32
-139 -110 -299 -260 -60 -57 -110 -100 -110 -97 0 4 23 55 50 113 28 58 50
114 50 123 0 25 -43 60 -74 60 -45 0 -61 -15 -126 -120 -67 -109 -88 -126
-218 -180 -124 -52 -320 -93 -349 -72 -10 6 -2 29 30 91 38 76 42 90 45 170 2
67 -1 93 -15 121 -35 67 -133 105 -212 81 -61 -18 -131 -71 -169 -128 -30 -46
-36 -63 -36 -111 -1 -31 2 -69 7 -84 6 -22 3 -28 -13 -33 -42 -13 -199 -126
-295 -212 -55 -49 -183 -177 -285 -284 -355 -373 -441 -442 -550 -443 -59 -1
-84 18 -116 91 -53 119 -53 350 1 598 23 102 61 245 67 250 2 1 41 8 88 15
227 32 498 158 757 351 242 182 442 384 581 587 115 169 158 275 169 417 14
197 -77 319 -249 332 -200 16 -490 -157 -803 -478 -274 -281 -477 -589 -610
-924 -26 -66 -49 -121 -50 -123 -1 -2 -19 7 -39 19 -31 18 -48 21 -100 17 -81
-7 -150 -43 -229 -122 -58 -58 -61 -60 -169 -88 -112 -29 -344 -66 -353 -56
-3 3 11 47 31 99 20 52 58 150 84 219 26 69 122 323 214 565 316 828 383 1027
393 1151 7 83 -7 135 -44 164 -28 22 -37 23 -68 11z m-25 -221 c-12 -46 -50
-164 -85 -264 -58 -167 -96 -262 -312 -796 -125 -308 -268 -667 -319 -802 -39
-101 -53 -128 -68 -128 -75 0 -546 127 -546 147 0 3 34 55 76 116 73 108 323
485 680 1027 223 338 582 820 592 792 1 -5 -7 -47 -18 -92z m1834 -361 c39
-30 55 -69 62 -146 10 -107 -29 -231 -121 -386 -140 -238 -443 -539 -715 -711
-105 -66 -291 -159 -380 -189 -62 -21 -177 -47 -214 -47 -30 0 124 351 239
545 197 332 567 732 817 883 120 72 257 94 312 51z m61 -1354 c21 -20 25 -34
25 -82 0 -69 -17 -106 -86 -191 -72 -89 -83 -84 -19 10 62 89 66 115 22 136
-27 13 -32 11 -83 -22 -42 -28 -56 -33 -60 -22 -10 26 15 92 52 135 57 66 108
78 149 36z m-1665 -135 c11 -11 20 -25 20 -32 0 -25 -333 -339 -345 -326 -3 3
1 23 9 45 47 132 146 266 227 307 63 31 64 31 89 6z m3801 -19 c-15 -27 -123
-170 -160 -211 -29 -32 -31 -33 -26 -10 15 61 68 150 114 194 52 48 91 63 72
27z"/>
<path d="M8883 5650 c-25 -10 -38 -48 -28 -80 9 -29 69 -54 95 -40 49 26 46
95 -6 119 -29 13 -31 13 -61 1z"/>
<path d="M2452 4068 c-9 -9 -12 -78 -12 -250 l0 -238 26 -10 c39 -15 174 -12
231 5 34 10 61 27 82 50 27 31 31 43 31 92 0 51 -3 58 -39 94 -33 34 -36 40
-23 51 30 25 43 75 32 118 -13 49 -51 77 -121 90 -72 14 -192 13 -207 -2z
m203 -72 c19 -12 25 -25 25 -51 0 -51 -28 -75 -90 -75 l-50 0 0 76 0 77 45 -5
c25 -3 56 -13 70 -22z m-5 -199 c60 -21 79 -94 37 -143 -20 -23 -34 -28 -85
-32 l-62 -4 0 96 0 96 38 -1 c20 0 53 -5 72 -12z"/>
<path d="M2863 4073 c-25 -10 -12 -49 60 -177 l72 -131 5 -95 5 -95 39 -3 c24
-2 42 2 47 10 5 7 9 51 9 98 l0 85 80 140 c44 77 80 146 80 153 0 7 -12 12
-29 12 -24 0 -34 -8 -54 -42 -13 -24 -43 -76 -66 -116 l-43 -74 -60 109 c-33
59 -67 114 -76 121 -16 12 -46 15 -69 5z"/>
<path d="M3618 4072 c-86 -2 -107 -6 -112 -19 -12 -31 13 -43 95 -43 l79 0 0
-215 c0 -194 2 -215 18 -223 9 -5 28 -6 42 -2 l25 6 3 217 2 216 83 3 c78 3
82 4 85 27 6 43 15 42 -320 33z"/>
<path d="M4052 4072 c-9 -7 -12 -64 -10 -252 l3 -243 28 -10 c55 -18 57 -10
57 258 0 212 -2 244 -16 249 -21 8 -46 7 -62 -2z"/>
<path d="M4318 4072 l-28 -3 0 -249 0 -250 25 -6 c13 -3 85 -4 160 -2 144 3
165 11 144 50 -8 16 -24 18 -124 18 l-115 0 0 85 0 85 94 0 c73 0 96 3 107 16
9 11 10 20 2 32 -8 14 -29 18 -105 20 l-96 3 -1 69 -1 69 118 3 117 3 3 27 c3
22 -2 28 -20 33 -22 5 -226 3 -280 -3z"/>
<path d="M4707 4073 c-4 -3 -7 -115 -7 -248 0 -252 4 -274 42 -260 12 5 16 35
22 138 3 73 3 147 0 165 -4 18 -2 32 3 32 5 0 85 -76 177 -170 92 -93 174
-170 181 -170 23 0 22 508 0 516 -8 4 -22 1 -30 -6 -12 -10 -15 -43 -15 -175
l0 -162 -172 173 c-95 96 -177 174 -183 174 -7 0 -15 -3 -18 -7z"/>
<path d="M5298 4069 c-16 -9 -18 -32 -18 -248 0 -202 2 -241 15 -251 21 -17
204 -7 267 15 103 36 165 140 156 259 -6 71 -22 107 -70 155 -53 55 -105 72
-227 77 -61 2 -113 -1 -123 -7z m227 -75 c120 -57 128 -265 13 -341 -30 -21
-52 -26 -101 -27 l-62 -1 -3 185 c-1 101 0 191 3 199 7 18 99 10 150 -15z"/>
<path d="M5942 4068 c-6 -8 -47 -101 -92 -208 -44 -107 -87 -210 -95 -228 -22
-49 -19 -62 14 -62 26 0 31 6 54 63 l25 62 109 3 108 3 33 -66 32 -65 45 0
c30 0 45 4 45 13 0 12 -141 325 -197 437 -29 57 -59 74 -81 48z m20 -306 c-41
-2 -76 -1 -79 1 -2 3 8 33 23 68 14 35 31 75 36 89 10 23 13 19 52 -65 l42
-90 -74 -3z"/>
<path d="M6548 4069 c-16 -9 -18 -32 -18 -248 0 -250 4 -271 44 -255 14 5 16
28 16 167 0 99 4 157 9 152 5 -6 44 -75 86 -155 90 -169 99 -181 119 -160 8 8
53 86 99 173 l84 158 8 -161 c7 -155 8 -162 30 -172 16 -7 29 -7 44 1 21 11
21 17 21 249 0 251 -2 262 -46 262 -29 0 -31 -3 -135 -196 -50 -93 -94 -172
-97 -176 -4 -4 -48 70 -97 164 -110 210 -121 224 -167 197z"/>
<path d="M7256 4064 c-14 -13 -16 -50 -16 -244 0 -194 2 -231 16 -244 18 -19
38 -20 65 -6 18 10 19 24 19 250 0 226 -1 240 -19 250 -27 14 -47 13 -65 -6z"/>
<path d="M7595 4061 c-92 -43 -149 -130 -149 -231 0 -83 17 -132 62 -182 86
-95 247 -122 366 -61 40 20 76 62 69 79 -8 21 -29 17 -74 -13 -56 -37 -147
-44 -212 -15 -67 30 -100 85 -105 173 -5 85 22 148 77 183 74 47 153 42 222
-14 42 -33 61 -37 78 -16 16 19 -30 73 -84 97 -56 26 -195 26 -250 0z"/>
<path d="M8162 4068 c-5 -7 -18 -31 -27 -53 -121 -286 -175 -421 -170 -433 3
-8 16 -12 32 -10 23 3 31 12 52 66 l24 62 106 0 107 0 31 -64 c27 -53 36 -64
63 -70 17 -3 40 -1 50 4 19 10 19 11 1 53 -85 192 -204 443 -214 449 -18 12
-43 10 -55 -4z m97 -300 c1 -5 -35 -8 -80 -8 -44 0 -79 4 -77 8 2 4 18 46 37
91 l34 84 43 -84 c24 -46 43 -87 43 -91z"/>
<path d="M8941 3319 c-41 -45 -125 -123 -185 -173 -222 -184 -302 -228 -431
-234 -101 -4 -121 7 -203 116 -103 135 -202 211 -356 272 -110 44 -194 60
-327 60 -101 0 -118 -2 -123 -17 -5 -12 6 -29 36 -58 24 -22 86 -90 138 -150
138 -160 211 -229 280 -263 102 -51 149 -57 332 -43 87 7 162 11 165 8 13 -14
-455 -206 -612 -252 -159 -46 -204 -45 -228 3 -8 15 -29 70 -47 122 -47 135
-130 297 -185 358 -59 65 -158 115 -277 139 -72 14 -89 15 -102 4 -22 -19 -14
-39 45 -118 28 -36 72 -110 99 -164 69 -139 120 -211 222 -311 49 -49 87 -88
85 -88 -3 0 -40 7 -83 16 -163 33 -359 119 -514 225 -116 79 -235 110 -430
112 -124 1 -355 -25 -393 -45 -40 -21 -16 -51 98 -119 131 -78 206 -112 312
-141 70 -20 96 -22 253 -18 419 9 410 10 552 -38 70 -23 137 -42 150 -42 39 0
9 -15 -207 -105 -245 -102 -272 -107 -422 -76 -120 25 -276 27 -376 6 -87 -18
-241 -84 -412 -175 -142 -77 -171 -103 -145 -135 12 -14 52 -16 349 -12 318 3
340 5 406 26 91 30 142 57 262 135 54 35 135 81 180 100 183 81 514 196 561
196 10 0 -8 -23 -45 -57 -116 -109 -303 -313 -342 -372 -45 -70 -151 -301
-151 -330 0 -22 25 -51 44 -51 18 0 167 88 264 157 271 193 420 385 458 593 9
47 22 94 29 105 7 12 66 43 141 74 71 30 217 92 324 137 168 72 189 79 155 51
-189 -151 -299 -312 -375 -553 -23 -71 -52 -158 -66 -194 -34 -93 -29 -140 15
-140 34 0 321 238 403 334 33 40 79 111 104 162 48 98 94 260 94 331 0 24 7
57 15 73 38 74 146 189 302 323 264 226 339 318 260 317 -15 0 -47 -28 -96
-81z m-1323 -34 c77 -18 157 -58 241 -120 72 -53 216 -193 208 -202 -11 -11
-122 62 -186 122 -36 34 -84 74 -105 89 -37 25 -76 34 -76 18 0 -7 176 -168
233 -212 16 -13 52 -36 80 -52 l52 -30 -73 6 c-89 6 -160 37 -257 111 -76 58
-275 257 -275 274 0 16 84 13 158 -4z m-608 -182 c67 -39 168 -132 197 -181
29 -48 95 -213 89 -220 -5 -4 -79 148 -90 184 -9 30 -44 60 -56 48 -11 -11 46
-154 95 -236 26 -44 30 -56 16 -48 -42 22 -139 143 -190 236 -29 55 -78 133
-107 176 -30 42 -54 79 -54 82 0 8 49 -12 100 -41z m-663 -299 c77 -16 172
-52 313 -118 86 -40 83 -44 -15 -17 -106 30 -285 63 -301 57 -8 -3 -14 -9 -14
-14 0 -14 45 -29 159 -52 58 -11 107 -23 110 -26 3 -4 -43 -4 -104 -1 -126 5
-162 16 -344 103 l-124 59 69 11 c100 17 165 16 251 -2z m1952 -196 c-46 -93
-121 -206 -179 -272 -62 -72 -75 -106 -41 -106 42 0 167 141 233 263 25 45 37
61 33 42 -12 -57 -67 -176 -115 -248 -46 -70 -171 -200 -239 -247 l-34 -23 7
39 c13 73 58 208 91 274 40 79 157 233 216 283 23 21 44 37 46 37 2 0 -6 -19
-18 -42z m-840 -275 c-18 -32 -57 -96 -88 -142 -100 -150 -92 -135 -77 -157
14 -18 16 -17 58 26 24 25 66 79 92 120 60 91 75 108 48 54 -32 -63 -133 -194
-198 -255 -56 -52 -253 -199 -268 -199 -4 0 8 19 27 43 19 23 69 101 112 172
43 72 96 155 118 185 46 63 186 210 199 210 5 0 -5 -26 -23 -57z m-954 -84
c17 -4 -21 -5 -90 -2 -66 3 -122 7 -124 9 -8 8 184 2 214 -7z m-155 -68 l85
-8 -120 -3 c-150 -3 -180 -9 -180 -35 0 -19 9 -20 140 -25 l140 -5 -75 -19
c-97 -24 -215 -30 -375 -21 -150 8 -150 8 -1 81 89 44 90 44 195 43 58 -1 144
-4 191 -8z m774 -148 c-31 -49 -68 -105 -81 -125 -40 -64 -34 -42 9 35 38 67
115 177 124 177 2 0 -21 -39 -52 -87z"/>
<path d="M4940 3043 c-32 -12 -71 -59 -81 -95 -20 -78 18 -146 148 -260 l87
-76 94 86 c129 118 165 187 142 273 -14 49 -52 79 -102 79 -31 0 -47 -8 -83
-41 l-44 -40 -33 36 c-25 27 -43 37 -73 40 -22 3 -47 2 -55 -2z"/>
</g>
</svg>
